<?xml version="1.0" standalone="no"?>
<!DOCTYPE svg PUBLIC "-//W3C//DTD SVG 20010904//EN"
 "http://www.w3.org/TR/2001/REC-SVG-20010904/DTD/svg10.dtd">
<svg version="1.0" xmlns="http://www.w3.org/2000/svg"
 width="32.000000pt" height="32.000000pt" viewBox="0 0 32.000000 32.000000"
 preserveAspectRatio="xMidYMid meet">

<g transform="translate(0.000000,32.000000) scale(0.100000,-0.100000)"
fill="#000000" stroke="none">
<path d="M95 295 c-27 -14 -56 -25 -64 -25 -21 0 -7 -93 24 -157 23 -45 86
-113 106 -113 4 0 26 18 49 41 49 47 79 109 86 177 l6 47 -59 23 c-83 34 -92
34 -148 7z m138 -17 l57 -23 -6 -40 c-12 -83 -86 -195 -128 -195 -20 0 -74 62
-94 110 -28 62 -38 130 -20 130 7 0 36 11 63 24 28 14 55 23 60 21 6 -2 36
-14 68 -27z"/>
<path d="M133 238 c-24 -38 -33 -64 -33 -94 l0 -34 60 0 60 0 -1 38 c-1 68
-60 130 -86 90z m47 -18 c10 -18 8 -20 -20 -20 -28 0 -30 2 -20 20 6 11 15 20
20 20 5 0 14 -9 20 -20z m20 -65 c0 -34 -1 -35 -40 -35 -39 0 -40 1 -40 35 0
34 1 35 40 35 39 0 40 -1 40 -35z"/>
<path d="M150 150 c0 -5 5 -10 10 -10 6 0 10 5 10 10 0 6 -4 10 -10 10 -5 0
-10 -4 -10 -10z"/>
</g>
</svg>
